<svg xmlns="http://www.w3.org/2000/svg" xmlns:xlink="http://www.w3.org/1999/xlink" width="500" zoomAndPan="magnify" viewBox="0 0 375 374.999991" height="500" preserveAspectRatio="xMidYMid meet" version="1.0"><defs><g/><clipPath id="065804454b"><rect x="0" width="180" y="0" height="375"/></clipPath></defs><g transform="matrix(1, 0, 0, 1, 90, 0)"><g clip-path="url(#065804454b)"><g fill="#0d0d0d" fill-opacity="1"><g transform="translate(1.123746, 341.384345)"><g><path d="M 83.59375 0 L 17.59375 0 L 17.59375 -1.765625 C 25.519531 -7.628906 29.484375 -14.960938 29.484375 -23.765625 L 29.484375 -284.234375 C 29.484375 -293.023438 25.519531 -300.359375 17.59375 -306.234375 L 17.59375 -307.984375 L 83.59375 -307.984375 L 83.59375 -306.234375 C 75.675781 -300.359375 71.71875 -293.023438 71.71875 -284.234375 L 71.71875 -23.765625 C 71.71875 -14.960938 75.675781 -7.628906 83.59375 -1.765625 Z M 83.59375 0 "/></g></g></g><g fill="#0d0d0d" fill-opacity="1"><g transform="translate(68.879575, 341.384345)"><g><path d="M 3.078125 -21.125 C 3.078125 -28.457031 5.492188 -34.539062 10.328125 -39.375 C 15.171875 -44.21875 21.257812 -46.640625 28.59375 -46.640625 C 35.925781 -46.640625 42.015625 -44.21875 46.859375 -39.375 C 51.703125 -34.539062 54.125 -28.457031 54.125 -21.125 C 54.125 -14.082031 51.703125 -8.140625 46.859375 -3.296875 C 42.015625 1.535156 35.925781 3.953125 28.59375 3.953125 C 21.257812 3.953125 15.171875 1.535156 10.328125 -3.296875 C 5.492188 -8.140625 3.078125 -14.082031 3.078125 -21.125 Z M 3.078125 -21.125 "/></g></g></g><g fill="#0d0d0d" fill-opacity="1"><g transform="translate(92.637636, 341.384345)"><g><path d="M 83.59375 0 L 17.59375 0 L 17.59375 -1.765625 C 25.519531 -7.628906 29.484375 -14.960938 29.484375 -23.765625 L 29.484375 -284.234375 C 29.484375 -293.023438 25.519531 -300.359375 17.59375 -306.234375 L 17.59375 -307.984375 L 83.59375 -307.984375 L 83.59375 -306.234375 C 75.675781 -300.359375 71.71875 -293.023438 71.71875 -284.234375 L 71.71875 -23.765625 C 71.71875 -14.960938 75.675781 -7.628906 83.59375 -1.765625 Z M 83.59375 0 "/></g></g></g></g></g></svg>