<svg xmlns="http://www.w3.org/2000/svg" xmlns:xlink="http://www.w3.org/1999/xlink" width="400" zoomAndPan="magnify" viewBox="0 0 300 107.04" height="133" preserveAspectRatio="xMidYMid meet" version="1.0"><defs><g/><clipPath id="5b42e99282"><path d="M 1.332031 6 L 298.664062 6 L 298.664062 92 L 1.332031 92 Z M 1.332031 6 " clip-rule="nonzero"/></clipPath><clipPath id="d23395a6bd"><path d="M 0.332031 11 L 57 11 L 57 69 L 0.332031 69 Z M 0.332031 11 " clip-rule="nonzero"/></clipPath><clipPath id="68b9b4509b"><path d="M 251 11 L 297.664062 11 L 297.664062 69 L 251 69 Z M 251 11 " clip-rule="nonzero"/></clipPath><clipPath id="6cfa68f451"><rect x="0" width="298" y="0" height="86"/></clipPath></defs><g clip-path="url(#5b42e99282)"><g transform="matrix(1, 0, 0, 1, 1, 6)"><g clip-path="url(#6cfa68f451)"><g clip-path="url(#d23395a6bd)"><g fill="#f2cb05" fill-opacity="1"><g transform="translate(-2.782687, 68.582529)"><g><path d="M 25.75 0 L 3.28125 0 L 3.28125 -0.328125 C 4.757812 -1.421875 5.5 -2.785156 5.5 -4.421875 L 5.5 -52.96875 C 5.5 -54.613281 4.757812 -55.984375 3.28125 -57.078125 L 3.28125 -57.40625 L 26.984375 -57.40625 C 37.691406 -57.40625 45.78125 -54.722656 51.25 -49.359375 C 56.71875 -44.054688 59.453125 -37.171875 59.453125 -28.703125 C 59.453125 -19.898438 56.523438 -12.898438 50.671875 -7.703125 C 44.878906 -2.566406 36.570312 0 25.75 0 Z M 13.359375 -7.140625 L 26.15625 -7.140625 C 34.351562 -7.140625 40.640625 -9.007812 45.015625 -12.75 C 49.390625 -16.5 51.578125 -21.84375 51.578125 -28.78125 C 51.578125 -35.664062 49.414062 -40.96875 45.09375 -44.6875 C 40.78125 -48.40625 34.601562 -50.265625 26.5625 -50.265625 L 13.359375 -50.265625 Z M 13.359375 -7.140625 "/></g></g></g></g><g fill="#f2cb05" fill-opacity="1"><g transform="translate(52.238247, 68.582529)"><g><path d="M 33.453125 2.046875 C 24.328125 2.046875 16.785156 -0.847656 10.828125 -6.640625 C 4.804688 -12.492188 1.796875 -19.820312 1.796875 -28.625 C 1.796875 -37.476562 4.800781 -44.828125 10.8125 -50.671875 C 16.832031 -56.523438 24.378906 -59.453125 33.453125 -59.453125 C 42.585938 -59.453125 50.160156 -56.523438 56.171875 -50.671875 C 62.179688 -44.828125 65.1875 -37.476562 65.1875 -28.625 C 65.1875 -19.820312 62.179688 -12.492188 56.171875 -6.640625 C 50.210938 -0.847656 42.640625 2.046875 33.453125 2.046875 Z M 33.453125 -52.3125 C 26.515625 -52.3125 20.832031 -50.097656 16.40625 -45.671875 C 11.976562 -41.242188 9.765625 -35.554688 9.765625 -28.609375 C 9.765625 -21.671875 11.945312 -16.015625 16.3125 -11.640625 C 20.800781 -7.265625 26.515625 -5.078125 33.453125 -5.078125 C 40.398438 -5.078125 46.113281 -7.265625 50.59375 -11.640625 C 55.070312 -15.960938 57.3125 -21.625 57.3125 -28.625 C 57.3125 -35.5625 55.070312 -41.242188 50.59375 -45.671875 C 46.164062 -50.097656 40.453125 -52.3125 33.453125 -52.3125 Z M 33.453125 -52.3125 "/></g></g></g><g fill="#f2cb05" fill-opacity="1"><g transform="translate(112.999086, 68.582529)"><g><path d="M 38.875 -52.96875 L 56.75 -4.421875 C 57.457031 -2.617188 58.601562 -1.253906 60.1875 -0.328125 L 60.1875 0 L 47.71875 0 L 47.71875 -0.328125 C 49.195312 -1.253906 49.609375 -2.617188 48.953125 -4.421875 L 44.765625 -15.75 L 15.25 -15.75 L 11.15625 -4.421875 C 10.382812 -2.515625 10.765625 -1.148438 12.296875 -0.328125 L 12.296875 0 L -0.15625 0 L -0.15625 -0.328125 C 1.476562 -1.203125 2.625 -2.566406 3.28125 -4.421875 L 21.15625 -52.96875 C 21.863281 -54.769531 21.425781 -56.140625 19.84375 -57.078125 L 19.84375 -57.40625 L 40.09375 -57.40625 L 40.09375 -57.078125 C 38.625 -56.203125 38.21875 -54.832031 38.875 -52.96875 Z M 27.875 -50.265625 L 17.875 -22.953125 L 42.140625 -22.953125 L 32.0625 -50.265625 Z M 27.875 -50.265625 "/></g></g></g><g fill="#f2cb05" fill-opacity="1"><g transform="translate(166.790036, 68.582529)"><g><path d="M 15.578125 0 L 3.28125 0 L 3.28125 -0.328125 C 4.757812 -1.421875 5.5 -2.785156 5.5 -4.421875 L 5.5 -52.96875 C 5.5 -54.613281 4.757812 -55.984375 3.28125 -57.078125 L 3.28125 -57.40625 L 15.578125 -57.40625 L 15.578125 -57.078125 C 14.097656 -55.984375 13.359375 -54.613281 13.359375 -52.96875 L 13.359375 -4.421875 C 13.359375 -2.785156 14.097656 -1.421875 15.578125 -0.328125 Z M 15.578125 0 "/></g></g></g><g fill="#f2cb05" fill-opacity="1"><g transform="translate(179.417675, 68.582529)"><g><path d="M 0.578125 -3.9375 C 0.578125 -5.300781 1.023438 -6.429688 1.921875 -7.328125 C 2.828125 -8.234375 3.960938 -8.6875 5.328125 -8.6875 C 6.691406 -8.6875 7.828125 -8.234375 8.734375 -7.328125 C 9.640625 -6.429688 10.09375 -5.300781 10.09375 -3.9375 C 10.09375 -2.625 9.640625 -1.515625 8.734375 -0.609375 C 7.828125 0.285156 6.691406 0.734375 5.328125 0.734375 C 3.960938 0.734375 2.828125 0.285156 1.921875 -0.609375 C 1.023438 -1.515625 0.578125 -2.625 0.578125 -3.9375 Z M 0.578125 -3.9375 "/></g></g></g><g fill="#f2cb05" fill-opacity="1"><g transform="translate(183.84546, 68.582529)"><g><path d="M 66.75 -57.40625 L 66.75 -57.078125 C 65.320312 -56.085938 64.609375 -54.71875 64.609375 -52.96875 L 64.609375 -4.421875 C 64.609375 -2.671875 65.320312 -1.304688 66.75 -0.328125 L 66.75 0 L 54.53125 0 L 54.53125 -0.328125 C 55.945312 -1.304688 56.65625 -2.671875 56.65625 -4.421875 L 56.65625 -43.625 L 35.171875 -22.21875 L 34.84375 -22.21875 L 13.359375 -43.703125 L 13.359375 -4.421875 C 13.359375 -2.785156 14.097656 -1.421875 15.578125 -0.328125 L 15.578125 0 L 3.28125 0 L 3.28125 -0.328125 C 4.757812 -1.421875 5.5 -2.785156 5.5 -4.421875 L 5.5 -52.96875 C 5.5 -54.613281 4.757812 -55.984375 3.28125 -57.078125 L 3.28125 -57.40625 L 15.984375 -57.40625 L 15.984375 -57.078125 C 15.109375 -56.578125 14.5625 -55.957031 14.34375 -55.21875 C 14.125 -54.488281 14.34375 -53.710938 15 -52.890625 L 35.015625 -32.96875 L 55.109375 -52.890625 C 55.765625 -53.710938 55.984375 -54.488281 55.765625 -55.21875 C 55.546875 -55.957031 55 -56.578125 54.125 -57.078125 L 54.125 -57.40625 Z M 66.75 -57.40625 "/></g></g></g><g clip-path="url(#68b9b4509b)"><g fill="#f2cb05" fill-opacity="1"><g transform="translate(247.722241, 68.582529)"><g><path d="M 51.65625 -9.1875 L 52.0625 -9.1875 L 50.671875 0 L 3.28125 0 L 3.28125 -0.328125 C 4.757812 -1.421875 5.5 -2.785156 5.5 -4.421875 L 5.5 -52.96875 C 5.5 -54.613281 4.757812 -55.984375 3.28125 -57.078125 L 3.28125 -57.40625 L 48.375 -57.40625 L 49.78125 -48.21875 L 49.28125 -48.21875 C 48.570312 -49.582031 47.257812 -50.265625 45.34375 -50.265625 L 13.359375 -50.265625 L 13.359375 -35.34375 L 40.75 -35.34375 C 42.445312 -35.34375 43.816406 -36 44.859375 -37.3125 L 45.1875 -37.3125 L 45.1875 -26.234375 L 44.859375 -26.234375 C 43.816406 -27.546875 42.445312 -28.203125 40.75 -28.203125 L 13.359375 -28.203125 L 13.359375 -7.140625 L 47.71875 -7.140625 C 49.632812 -7.140625 50.945312 -7.820312 51.65625 -9.1875 Z M 51.65625 -9.1875 "/></g></g></g></g></g></g></g></svg>